<?xml version="1.0" encoding="utf-8" standalone="no"?>
<!DOCTYPE svg PUBLIC "-//W3C//DTD SVG 1.1//EN"
  "http://www.w3.org/Graphics/SVG/1.1/DTD/svg11.dtd">
<svg xmlns:xlink="http://www.w3.org/1999/xlink" width="1440pt" height="2160pt" viewBox="0 0 1440 2160" xmlns="http://www.w3.org/2000/svg" version="1.1">
 <metadata>
  <rdf:RDF xmlns:dc="http://purl.org/dc/elements/1.1/" xmlns:cc="http://creativecommons.org/ns#" xmlns:rdf="http://www.w3.org/1999/02/22-rdf-syntax-ns#">
   <cc:Work>
    <dc:type rdf:resource="http://purl.org/dc/dcmitype/StillImage"/>
    <dc:date>2024-01-09T14:52:07.751451</dc:date>
    <dc:format>image/svg+xml</dc:format>
    <dc:creator>
     <cc:Agent>
      <dc:title>Matplotlib v3.8.2, https://matplotlib.org/</dc:title>
     </cc:Agent>
    </dc:creator>
   </cc:Work>
  </rdf:RDF>
 </metadata>
 <defs>
  <style type="text/css">*{stroke-linejoin: round; stroke-linecap: butt}</style>
 </defs>
 <g id="figure_1">
  <g id="patch_1">
   <path d="M 0 2160 
L 1440 2160 
L 1440 0 
L 0 0 
z
" style="fill: #ffffff"/>
  </g>
  <g id="patch_2">
   <path d="M 180 1648.8 
L 1296 1648.8 
L 1296 532.8 
L 180 532.8 
z
" style="fill: #ffffff"/>
  </g>
  <g id="pane3d_1">
   <g id="patch_3">
    <path d="M 264.265696 1373.630165 
L 632.805343 1064.712925 
L 627.682289 619.199042 
L 241.50612 901.012821 
" style="fill: #f2f2f2; opacity: 0.5; stroke: #f2f2f2; stroke-linejoin: miter"/>
   </g>
  </g>
  <g id="pane3d_2">
   <g id="patch_4">
    <path d="M 632.805343 1064.712925 
L 1224.179981 1236.602185 
L 1245.284057 775.743087 
L 627.682289 619.199042 
" style="fill: #e6e6e6; opacity: 0.5; stroke: #e6e6e6; stroke-linejoin: miter"/>
   </g>
  </g>
  <g id="pane3d_3">
   <g id="patch_5">
    <path d="M 264.265696 1373.630165 
L 891.151696 1578.371131 
L 1224.179981 1236.602185 
L 632.805343 1064.712925 
" style="fill: #ececec; opacity: 0.5; stroke: #ececec; stroke-linejoin: miter"/>
   </g>
  </g>
  <g id="grid3d_1">
   <g id="Line3DCollection_1">
    <path d="M 299.816272 1385.240983 
L 666.48202 1074.501406 
L 662.782555 628.095936 
" style="fill: none; stroke: #cccccc"/>
    <path d="M 372.660473 1409.031899 
L 735.433791 1094.542963 
L 734.675382 646.318672 
" style="fill: none; stroke: #cccccc"/>
    <path d="M 446.424405 1433.123199 
L 805.183987 1114.816591 
L 807.436683 664.761541 
" style="fill: none; stroke: #cccccc"/>
    <path d="M 521.125598 1457.520609 
L 875.746556 1135.326344 
L 881.08229 683.428555 
" style="fill: none; stroke: #cccccc"/>
    <path d="M 596.78203 1482.229999 
L 947.135775 1156.076372 
L 955.628423 702.323827 
" style="fill: none; stroke: #cccccc"/>
    <path d="M 673.412141 1507.257393 
L 1019.366255 1177.070921 
L 1031.0917 721.451568 
" style="fill: none; stroke: #cccccc"/>
    <path d="M 751.034849 1532.608969 
L 1092.452954 1198.314339 
L 1107.489152 740.816095 
" style="fill: none; stroke: #cccccc"/>
    <path d="M 829.669566 1558.291068 
L 1166.411189 1219.811078 
L 1184.838234 760.421833 
" style="fill: none; stroke: #cccccc"/>
   </g>
  </g>
  <g id="grid3d_2">
   <g id="Line3DCollection_2">
    <path d="M 273.728087 877.498697 
L 294.909245 1347.944135 
L 918.954823 1549.838284 
" style="fill: none; stroke: #cccccc"/>
    <path d="M 320.141832 843.62806 
L 339.083467 1310.916425 
L 958.998463 1508.743658 
" style="fill: none; stroke: #cccccc"/>
    <path d="M 365.608116 810.448837 
L 382.395013 1274.611829 
L 998.21891 1468.493831 
" style="fill: none; stroke: #cccccc"/>
    <path d="M 410.155658 777.94007 
L 424.868908 1239.009368 
L 1036.641291 1429.063016 
" style="fill: none; stroke: #cccccc"/>
    <path d="M 453.812026 746.08164 
L 466.529219 1204.088869 
L 1074.289719 1390.426467 
" style="fill: none; stroke: #cccccc"/>
    <path d="M 496.603699 714.854227 
L 507.399102 1169.830923 
L 1111.187345 1352.560425 
" style="fill: none; stroke: #cccccc"/>
    <path d="M 538.556113 684.239266 
L 547.50084 1136.216851 
L 1147.356408 1315.44207 
" style="fill: none; stroke: #cccccc"/>
    <path d="M 579.69372 654.218914 
L 586.855888 1103.22867 
L 1182.818274 1279.049471 
" style="fill: none; stroke: #cccccc"/>
    <path d="M 620.040029 624.776015 
L 625.484908 1070.849059 
L 1217.593485 1243.36155 
" style="fill: none; stroke: #cccccc"/>
   </g>
  </g>
  <g id="grid3d_3">
   <g id="Line3DCollection_3">
    <path d="M 1226.884008 1177.553148 
L 632.147727 1007.524894 
L 261.353837 1313.16353 
" style="fill: none; stroke: #cccccc"/>
    <path d="M 1230.468455 1099.277976 
L 631.276541 931.764372 
L 257.49195 1232.968939 
" style="fill: none; stroke: #cccccc"/>
    <path d="M 1234.10755 1019.80943 
L 630.392713 854.904395 
L 253.568922 1151.504726 
" style="fill: none; stroke: #cccccc"/>
    <path d="M 1237.802553 939.120009 
L 629.495964 776.920855 
L 249.583291 1068.740498 
" style="fill: none; stroke: #cccccc"/>
    <path d="M 1241.554762 857.181362 
L 628.58601 697.788933 
L 245.533544 984.644888 
" style="fill: none; stroke: #cccccc"/>
   </g>
  </g>
  <g id="axis3d_1">
   <g id="line2d_1">
    <path d="M 264.265696 1373.630165 
L 891.151696 1578.371131 
" style="fill: none; stroke: #cccccc; stroke-width: 1.25; stroke-linecap: round"/>
   </g>
   <g id="xtick_1">
    <g id="line2d_2">
     <path d="M 753.081081 1075.718919 
" clip-path="url(#pd3ade751e3)" style="fill: none; stroke: #cccccc; stroke-linecap: round"/>
    </g>
    <g id="line2d_3">
     <path d="M 303.009123 1382.535126 
L 293.416873 1390.664306 
" style="fill: none; stroke: #262626; stroke-width: 1.25; stroke-linecap: round"/>
    </g>
    <g id="text_1">
     <!-- −60 -->
     <g style="fill: #262626" transform="translate(282.978529 1408.776978) scale(0.11 -0.11)">
      <defs>
       <path id="ArialMT-2212" d="M 3381 1997 
L 356 1997 
L 356 2522 
L 3381 2522 
L 3381 1997 
z
" transform="scale(0.015625)"/>
       <path id="ArialMT-36" d="M 3184 3459 
L 2625 3416 
Q 2550 3747 2413 3897 
Q 2184 4138 1850 4138 
Q 1581 4138 1378 3988 
Q 1113 3794 959 3422 
Q 806 3050 800 2363 
Q 1003 2672 1297 2822 
Q 1591 2972 1913 2972 
Q 2475 2972 2870 2558 
Q 3266 2144 3266 1488 
Q 3266 1056 3080 686 
Q 2894 316 2569 119 
Q 2244 -78 1831 -78 
Q 1128 -78 684 439 
Q 241 956 241 2144 
Q 241 3472 731 4075 
Q 1159 4600 1884 4600 
Q 2425 4600 2770 4297 
Q 3116 3994 3184 3459 
z
M 888 1484 
Q 888 1194 1011 928 
Q 1134 663 1356 523 
Q 1578 384 1822 384 
Q 2178 384 2434 671 
Q 2691 959 2691 1453 
Q 2691 1928 2437 2201 
Q 2184 2475 1800 2475 
Q 1419 2475 1153 2201 
Q 888 1928 888 1484 
z
" transform="scale(0.015625)"/>
       <path id="ArialMT-30" d="M 266 2259 
Q 266 3072 433 3567 
Q 600 4063 929 4331 
Q 1259 4600 1759 4600 
Q 2128 4600 2406 4451 
Q 2684 4303 2865 4023 
Q 3047 3744 3150 3342 
Q 3253 2941 3253 2259 
Q 3253 1453 3087 958 
Q 2922 463 2592 192 
Q 2263 -78 1759 -78 
Q 1097 -78 719 397 
Q 266 969 266 2259 
z
M 844 2259 
Q 844 1131 1108 757 
Q 1372 384 1759 384 
Q 2147 384 2411 759 
Q 2675 1134 2675 2259 
Q 2675 3391 2411 3762 
Q 2147 4134 1753 4134 
Q 1366 4134 1134 3806 
Q 844 3388 844 2259 
z
" transform="scale(0.015625)"/>
      </defs>
      <use xlink:href="#ArialMT-2212"/>
      <use xlink:href="#ArialMT-36" x="58.398438"/>
      <use xlink:href="#ArialMT-30" x="114.013672"/>
     </g>
    </g>
   </g>
   <g id="xtick_2">
    <g id="line2d_4">
     <path d="M 753.081081 1075.718919 
" clip-path="url(#pd3ade751e3)" style="fill: none; stroke: #cccccc; stroke-linecap: round"/>
    </g>
    <g id="line2d_5">
     <path d="M 375.821039 1406.291998 
L 366.325697 1414.52353 
" style="fill: none; stroke: #262626; stroke-width: 1.25; stroke-linecap: round"/>
    </g>
    <g id="text_2">
     <!-- −40 -->
     <g style="fill: #262626" transform="translate(355.840362 1432.687394) scale(0.11 -0.11)">
      <defs>
       <path id="ArialMT-34" d="M 2069 0 
L 2069 1097 
L 81 1097 
L 81 1613 
L 2172 4581 
L 2631 4581 
L 2631 1613 
L 3250 1613 
L 3250 1097 
L 2631 1097 
L 2631 0 
L 2069 0 
z
M 2069 1613 
L 2069 3678 
L 634 1613 
L 2069 1613 
z
" transform="scale(0.015625)"/>
      </defs>
      <use xlink:href="#ArialMT-2212"/>
      <use xlink:href="#ArialMT-34" x="58.398438"/>
      <use xlink:href="#ArialMT-30" x="114.013672"/>
     </g>
    </g>
   </g>
   <g id="xtick_3">
    <g id="line2d_6">
     <path d="M 753.081081 1075.718919 
" clip-path="url(#pd3ade751e3)" style="fill: none; stroke: #cccccc; stroke-linecap: round"/>
    </g>
    <g id="line2d_7">
     <path d="M 449.551615 1430.348607 
L 440.156401 1438.684436 
" style="fill: none; stroke: #262626; stroke-width: 1.25; stroke-linecap: round"/>
    </g>
    <g id="text_3">
     <!-- −20 -->
     <g style="fill: #262626" transform="translate(429.622972 1456.899973) scale(0.11 -0.11)">
      <defs>
       <path id="ArialMT-32" d="M 3222 541 
L 3222 0 
L 194 0 
Q 188 203 259 391 
Q 375 700 629 1000 
Q 884 1300 1366 1694 
Q 2113 2306 2375 2664 
Q 2638 3022 2638 3341 
Q 2638 3675 2398 3904 
Q 2159 4134 1775 4134 
Q 1369 4134 1125 3890 
Q 881 3647 878 3216 
L 300 3275 
Q 359 3922 746 4261 
Q 1134 4600 1788 4600 
Q 2447 4600 2831 4234 
Q 3216 3869 3216 3328 
Q 3216 3053 3103 2787 
Q 2991 2522 2730 2228 
Q 2469 1934 1863 1422 
Q 1356 997 1212 845 
Q 1069 694 975 541 
L 3222 541 
z
" transform="scale(0.015625)"/>
      </defs>
      <use xlink:href="#ArialMT-2212"/>
      <use xlink:href="#ArialMT-32" x="58.398438"/>
      <use xlink:href="#ArialMT-30" x="114.013672"/>
     </g>
    </g>
   </g>
   <g id="xtick_4">
    <g id="line2d_8">
     <path d="M 753.081081 1075.718919 
" clip-path="url(#pd3ade751e3)" style="fill: none; stroke: #cccccc; stroke-linecap: round"/>
    </g>
    <g id="line2d_9">
     <path d="M 524.218346 1454.710663 
L 514.926582 1463.152784 
" style="fill: none; stroke: #262626; stroke-width: 1.25; stroke-linecap: round"/>
    </g>
    <g id="text_4">
     <!-- 0 -->
     <g style="fill: #262626" transform="translate(510.614784 1481.420479) scale(0.11 -0.11)">
      <use xlink:href="#ArialMT-30"/>
     </g>
    </g>
   </g>
   <g id="xtick_5">
    <g id="line2d_10">
     <path d="M 753.081081 1075.718919 
" clip-path="url(#pd3ade751e3)" style="fill: none; stroke: #cccccc; stroke-linecap: round"/>
    </g>
    <g id="line2d_11">
     <path d="M 599.839177 1479.38402 
L 590.654286 1487.934479 
" style="fill: none; stroke: #262626; stroke-width: 1.25; stroke-linecap: round"/>
    </g>
    <g id="text_5">
     <!-- 20 -->
     <g style="fill: #262626" transform="translate(583.233577 1506.254825) scale(0.11 -0.11)">
      <use xlink:href="#ArialMT-32"/>
      <use xlink:href="#ArialMT-30" x="55.615234"/>
     </g>
    </g>
   </g>
   <g id="xtick_6">
    <g id="line2d_12">
     <path d="M 753.081081 1075.718919 
" clip-path="url(#pd3ade751e3)" style="fill: none; stroke: #cccccc; stroke-linecap: round"/>
    </g>
    <g id="line2d_13">
     <path d="M 676.432511 1504.374683 
L 667.358024 1513.035579 
" style="fill: none; stroke: #262626; stroke-width: 1.25; stroke-linecap: round"/>
    </g>
    <g id="text_6">
     <!-- 40 -->
     <g style="fill: #262626" transform="translate(659.885723 1531.409074) scale(0.11 -0.11)">
      <use xlink:href="#ArialMT-34"/>
      <use xlink:href="#ArialMT-30" x="55.615234"/>
     </g>
    </g>
   </g>
   <g id="xtick_7">
    <g id="line2d_14">
     <path d="M 753.081081 1075.718919 
" clip-path="url(#pd3ade751e3)" style="fill: none; stroke: #cccccc; stroke-linecap: round"/>
    </g>
    <g id="line2d_15">
     <path d="M 754.017232 1529.688812 
L 745.05679 1538.462299 
" style="fill: none; stroke: #262626; stroke-width: 1.25; stroke-linecap: round"/>
    </g>
    <g id="text_7">
     <!-- 60 -->
     <g style="fill: #262626" transform="translate(737.531663 1556.889447) scale(0.11 -0.11)">
      <use xlink:href="#ArialMT-36"/>
      <use xlink:href="#ArialMT-30" x="55.615234"/>
     </g>
    </g>
   </g>
   <g id="xtick_8">
    <g id="line2d_16">
     <path d="M 753.081081 1075.718919 
" clip-path="url(#pd3ade751e3)" style="fill: none; stroke: #cccccc; stroke-linecap: round"/>
    </g>
    <g id="line2d_17">
     <path d="M 832.612711 1555.332729 
L 823.770071 1564.221017 
" style="fill: none; stroke: #262626; stroke-width: 1.25; stroke-linecap: round"/>
    </g>
    <g id="text_8">
     <!-- 80 -->
     <g style="fill: #262626" transform="translate(816.19085 1582.702329) scale(0.11 -0.11)">
      <defs>
       <path id="ArialMT-38" d="M 1131 2484 
Q 781 2613 612 2850 
Q 444 3088 444 3419 
Q 444 3919 803 4259 
Q 1163 4600 1759 4600 
Q 2359 4600 2725 4251 
Q 3091 3903 3091 3403 
Q 3091 3084 2923 2848 
Q 2756 2613 2416 2484 
Q 2838 2347 3058 2040 
Q 3278 1734 3278 1309 
Q 3278 722 2862 322 
Q 2447 -78 1769 -78 
Q 1091 -78 675 323 
Q 259 725 259 1325 
Q 259 1772 486 2073 
Q 713 2375 1131 2484 
z
M 1019 3438 
Q 1019 3113 1228 2906 
Q 1438 2700 1772 2700 
Q 2097 2700 2305 2904 
Q 2513 3109 2513 3406 
Q 2513 3716 2298 3927 
Q 2084 4138 1766 4138 
Q 1444 4138 1231 3931 
Q 1019 3725 1019 3438 
z
M 838 1322 
Q 838 1081 952 856 
Q 1066 631 1291 507 
Q 1516 384 1775 384 
Q 2178 384 2440 643 
Q 2703 903 2703 1303 
Q 2703 1709 2433 1975 
Q 2163 2241 1756 2241 
Q 1359 2241 1098 1978 
Q 838 1716 838 1322 
z
" transform="scale(0.015625)"/>
      </defs>
      <use xlink:href="#ArialMT-38"/>
      <use xlink:href="#ArialMT-30" x="55.615234"/>
     </g>
    </g>
   </g>
   <g id="text_9">
    <!-- PC1 -->
    <g style="fill: #262626" transform="translate(541.584448 1511.454397) scale(0.12 -0.12)">
     <defs>
      <path id="ArialMT-50" d="M 494 0 
L 494 4581 
L 2222 4581 
Q 2678 4581 2919 4538 
Q 3256 4481 3484 4323 
Q 3713 4166 3852 3881 
Q 3991 3597 3991 3256 
Q 3991 2672 3619 2267 
Q 3247 1863 2275 1863 
L 1100 1863 
L 1100 0 
L 494 0 
z
M 1100 2403 
L 2284 2403 
Q 2872 2403 3119 2622 
Q 3366 2841 3366 3238 
Q 3366 3525 3220 3729 
Q 3075 3934 2838 4000 
Q 2684 4041 2272 4041 
L 1100 4041 
L 1100 2403 
z
" transform="scale(0.015625)"/>
      <path id="ArialMT-43" d="M 3763 1606 
L 4369 1453 
Q 4178 706 3683 314 
Q 3188 -78 2472 -78 
Q 1731 -78 1267 223 
Q 803 525 561 1097 
Q 319 1669 319 2325 
Q 319 3041 592 3573 
Q 866 4106 1370 4382 
Q 1875 4659 2481 4659 
Q 3169 4659 3637 4309 
Q 4106 3959 4291 3325 
L 3694 3184 
Q 3534 3684 3231 3912 
Q 2928 4141 2469 4141 
Q 1941 4141 1586 3887 
Q 1231 3634 1087 3207 
Q 944 2781 944 2328 
Q 944 1744 1114 1308 
Q 1284 872 1643 656 
Q 2003 441 2422 441 
Q 2931 441 3284 734 
Q 3638 1028 3763 1606 
z
" transform="scale(0.015625)"/>
      <path id="ArialMT-31" d="M 2384 0 
L 1822 0 
L 1822 3584 
Q 1619 3391 1289 3197 
Q 959 3003 697 2906 
L 697 3450 
Q 1169 3672 1522 3987 
Q 1875 4303 2022 4600 
L 2384 4600 
L 2384 0 
z
" transform="scale(0.015625)"/>
     </defs>
     <use xlink:href="#ArialMT-50"/>
     <use xlink:href="#ArialMT-43" x="66.699219"/>
     <use xlink:href="#ArialMT-31" x="138.916016"/>
    </g>
   </g>
  </g>
  <g id="axis3d_2">
   <g id="line2d_18">
    <path d="M 1224.179981 1236.602185 
L 891.151696 1578.371131 
" style="fill: none; stroke: #cccccc; stroke-width: 1.25; stroke-linecap: round"/>
   </g>
   <g id="xtick_9">
    <g id="line2d_19">
     <path d="M 753.081081 1075.718919 
" clip-path="url(#pd3ade751e3)" style="fill: none; stroke: #cccccc; stroke-linecap: round"/>
    </g>
    <g id="line2d_20">
     <path d="M 913.6963 1548.137022 
L 929.48545 1553.245202 
" style="fill: none; stroke: #262626; stroke-width: 1.25; stroke-linecap: round"/>
    </g>
    <g id="text_10">
     <!-- −40 -->
     <g style="fill: #262626" transform="translate(922.485012 1571.111809) scale(0.11 -0.11)">
      <use xlink:href="#ArialMT-2212"/>
      <use xlink:href="#ArialMT-34" x="58.398438"/>
      <use xlink:href="#ArialMT-30" x="114.013672"/>
     </g>
    </g>
   </g>
   <g id="xtick_10">
    <g id="line2d_21">
     <path d="M 753.081081 1075.718919 
" clip-path="url(#pd3ade751e3)" style="fill: none; stroke: #cccccc; stroke-linecap: round"/>
    </g>
    <g id="line2d_22">
     <path d="M 953.777491 1507.077542 
L 969.453751 1512.080149 
" style="fill: none; stroke: #262626; stroke-width: 1.25; stroke-linecap: round"/>
    </g>
    <g id="text_11">
     <!-- −20 -->
     <g style="fill: #262626" transform="translate(962.400729 1529.872203) scale(0.11 -0.11)">
      <use xlink:href="#ArialMT-2212"/>
      <use xlink:href="#ArialMT-32" x="58.398438"/>
      <use xlink:href="#ArialMT-30" x="114.013672"/>
     </g>
    </g>
   </g>
   <g id="xtick_11">
    <g id="line2d_23">
     <path d="M 753.081081 1075.718919 
" clip-path="url(#pd3ade751e3)" style="fill: none; stroke: #cccccc; stroke-linecap: round"/>
    </g>
    <g id="line2d_24">
     <path d="M 993.035065 1466.861782 
L 1008.599715 1471.762056 
" style="fill: none; stroke: #262626; stroke-width: 1.25; stroke-linecap: round"/>
    </g>
    <g id="text_12">
     <!-- 0 -->
     <g style="fill: #262626" transform="translate(1007.766629 1489.480494) scale(0.11 -0.11)">
      <use xlink:href="#ArialMT-30"/>
     </g>
    </g>
   </g>
   <g id="xtick_12">
    <g id="line2d_25">
     <path d="M 753.081081 1075.718919 
" clip-path="url(#pd3ade751e3)" style="fill: none; stroke: #cccccc; stroke-linecap: round"/>
    </g>
    <g id="line2d_26">
     <path d="M 1031.49415 1427.464001 
L 1046.948463 1432.265049 
" style="fill: none; stroke: #262626; stroke-width: 1.25; stroke-linecap: round"/>
    </g>
    <g id="text_13">
     <!-- 20 -->
     <g style="fill: #262626" transform="translate(1043.007529 1449.910798) scale(0.11 -0.11)">
      <use xlink:href="#ArialMT-32"/>
      <use xlink:href="#ArialMT-30" x="55.615234"/>
     </g>
    </g>
   </g>
   <g id="xtick_13">
    <g id="line2d_27">
     <path d="M 753.081081 1075.718919 
" clip-path="url(#pd3ade751e3)" style="fill: none; stroke: #cccccc; stroke-linecap: round"/>
    </g>
    <g id="line2d_28">
     <path d="M 1069.178861 1388.859493 
L 1084.524103 1393.564299 
" style="fill: none; stroke: #262626; stroke-width: 1.25; stroke-linecap: round"/>
    </g>
    <g id="text_14">
     <!-- 40 -->
     <g style="fill: #262626" transform="translate(1080.535362 1411.138275) scale(0.11 -0.11)">
      <use xlink:href="#ArialMT-34"/>
      <use xlink:href="#ArialMT-30" x="55.615234"/>
     </g>
    </g>
   </g>
   <g id="xtick_14">
    <g id="line2d_29">
     <path d="M 753.081081 1075.718919 
" clip-path="url(#pd3ade751e3)" style="fill: none; stroke: #cccccc; stroke-linecap: round"/>
    </g>
    <g id="line2d_30">
     <path d="M 1106.112355 1351.024539 
L 1121.34978 1355.635968 
" style="fill: none; stroke: #262626; stroke-width: 1.25; stroke-linecap: round"/>
    </g>
    <g id="text_15">
     <!-- 60 -->
     <g style="fill: #262626" transform="translate(1117.314698 1373.139075) scale(0.11 -0.11)">
      <use xlink:href="#ArialMT-36"/>
      <use xlink:href="#ArialMT-30" x="55.615234"/>
     </g>
    </g>
   </g>
   <g id="xtick_15">
    <g id="line2d_31">
     <path d="M 753.081081 1075.718919 
" clip-path="url(#pd3ade751e3)" style="fill: none; stroke: #cccccc; stroke-linecap: round"/>
    </g>
    <g id="line2d_32">
     <path d="M 1142.316872 1313.936354 
L 1157.447725 1318.45716 
" style="fill: none; stroke: #262626; stroke-width: 1.25; stroke-linecap: round"/>
    </g>
    <g id="text_16">
     <!-- 80 -->
     <g style="fill: #262626" transform="translate(1153.367708 1335.890291) scale(0.11 -0.11)">
      <use xlink:href="#ArialMT-38"/>
      <use xlink:href="#ArialMT-30" x="55.615234"/>
     </g>
    </g>
   </g>
   <g id="xtick_16">
    <g id="line2d_33">
     <path d="M 753.081081 1075.718919 
" clip-path="url(#pd3ade751e3)" style="fill: none; stroke: #cccccc; stroke-linecap: round"/>
    </g>
    <g id="line2d_34">
     <path d="M 1177.813783 1277.573046 
L 1192.839299 1282.005873 
" style="fill: none; stroke: #262626; stroke-width: 1.25; stroke-linecap: round"/>
    </g>
    <g id="text_17">
     <!-- 100 -->
     <g style="fill: #262626" transform="translate(1185.657182 1299.369911) scale(0.11 -0.11)">
      <use xlink:href="#ArialMT-31"/>
      <use xlink:href="#ArialMT-30" x="55.615234"/>
      <use xlink:href="#ArialMT-30" x="111.230469"/>
     </g>
    </g>
   </g>
   <g id="xtick_17">
    <g id="line2d_35">
     <path d="M 753.081081 1075.718919 
" clip-path="url(#pd3ade751e3)" style="fill: none; stroke: #cccccc; stroke-linecap: round"/>
    </g>
    <g id="line2d_36">
     <path d="M 1212.623632 1241.913569 
L 1227.545033 1246.260961 
" style="fill: none; stroke: #262626; stroke-width: 1.25; stroke-linecap: round"/>
    </g>
    <g id="text_18">
     <!-- 120 -->
     <g style="fill: #262626" transform="translate(1220.320631 1263.556776) scale(0.11 -0.11)">
      <use xlink:href="#ArialMT-31"/>
      <use xlink:href="#ArialMT-32" x="55.615234"/>
      <use xlink:href="#ArialMT-30" x="111.230469"/>
     </g>
    </g>
   </g>
   <g id="text_19">
    <!-- PC2 -->
    <g style="fill: #262626" transform="translate(1080.396942 1430.919239) scale(0.12 -0.12)">
     <use xlink:href="#ArialMT-50"/>
     <use xlink:href="#ArialMT-43" x="66.699219"/>
     <use xlink:href="#ArialMT-32" x="138.916016"/>
    </g>
   </g>
  </g>
  <g id="axis3d_3">
   <g id="line2d_37">
    <path d="M 1224.179981 1236.602185 
L 1245.284057 775.743087 
" style="fill: none; stroke: #cccccc; stroke-width: 1.25; stroke-linecap: round"/>
   </g>
   <g id="xtick_18">
    <g id="line2d_38">
     <path d="M 753.081081 1075.718919 
" style="fill: none; stroke: #cccccc; stroke-linecap: round"/>
    </g>
    <g id="line2d_39">
     <path d="M 1221.891192 1176.125759 
L 1236.881582 1180.411339 
" style="fill: none; stroke: #262626; stroke-width: 1.25; stroke-linecap: round"/>
    </g>
    <g id="text_20">
     <!-- −40 -->
     <g style="fill: #262626" transform="translate(1235.947993 1182.843362) scale(0.11 -0.11)">
      <use xlink:href="#ArialMT-2212"/>
      <use xlink:href="#ArialMT-34" x="58.398438"/>
      <use xlink:href="#ArialMT-30" x="114.013672"/>
     </g>
    </g>
   </g>
   <g id="xtick_19">
    <g id="line2d_40">
     <path d="M 753.081081 1075.718919 
" style="fill: none; stroke: #cccccc; stroke-linecap: round"/>
    </g>
    <g id="line2d_41">
     <path d="M 1225.436444 1097.871197 
L 1240.544604 1102.094923 
" style="fill: none; stroke: #262626; stroke-width: 1.25; stroke-linecap: round"/>
    </g>
    <g id="text_21">
     <!-- −20 -->
     <g style="fill: #262626" transform="translate(1239.668888 1104.605498) scale(0.11 -0.11)">
      <use xlink:href="#ArialMT-2212"/>
      <use xlink:href="#ArialMT-32" x="58.398438"/>
      <use xlink:href="#ArialMT-30" x="114.013672"/>
     </g>
    </g>
   </g>
   <g id="xtick_20">
    <g id="line2d_42">
     <path d="M 753.081081 1075.718919 
" style="fill: none; stroke: #cccccc; stroke-linecap: round"/>
    </g>
    <g id="line2d_43">
     <path d="M 1229.035725 1018.424058 
L 1244.263518 1022.583538 
" style="fill: none; stroke: #262626; stroke-width: 1.25; stroke-linecap: round"/>
    </g>
    <g id="text_22">
     <!-- 0 -->
     <g style="fill: #262626" transform="translate(1249.717328 1025.175701) scale(0.11 -0.11)">
      <use xlink:href="#ArialMT-30"/>
     </g>
    </g>
   </g>
   <g id="xtick_21">
    <g id="line2d_44">
     <path d="M 753.081081 1075.718919 
" style="fill: none; stroke: #cccccc; stroke-linecap: round"/>
    </g>
    <g id="line2d_45">
     <path d="M 1232.69028 937.75687 
L 1248.039611 941.849623 
" style="fill: none; stroke: #262626; stroke-width: 1.25; stroke-linecap: round"/>
    </g>
    <g id="text_23">
     <!-- 20 -->
     <g style="fill: #262626" transform="translate(1250.494386 944.526525) scale(0.11 -0.11)">
      <use xlink:href="#ArialMT-32"/>
      <use xlink:href="#ArialMT-30" x="55.615234"/>
     </g>
    </g>
   </g>
   <g id="xtick_22">
    <g id="line2d_46">
     <path d="M 753.081081 1075.718919 
" style="fill: none; stroke: #cccccc; stroke-linecap: round"/>
    </g>
    <g id="line2d_47">
     <path d="M 1236.40139 855.841312 
L 1251.874214 859.864765 
" style="fill: none; stroke: #262626; stroke-width: 1.25; stroke-linecap: round"/>
    </g>
    <g id="text_24">
     <!-- 40 -->
     <g style="fill: #262626" transform="translate(1254.389297 862.629672) scale(0.11 -0.11)">
      <use xlink:href="#ArialMT-34"/>
      <use xlink:href="#ArialMT-30" x="55.615234"/>
     </g>
    </g>
   </g>
   <g id="text_25">
    <!-- PC3 -->
    <g style="fill: #262626" transform="translate(1263.409864 1008.886279) scale(0.12 -0.12)">
     <defs>
      <path id="ArialMT-33" d="M 269 1209 
L 831 1284 
Q 928 806 1161 595 
Q 1394 384 1728 384 
Q 2125 384 2398 659 
Q 2672 934 2672 1341 
Q 2672 1728 2419 1979 
Q 2166 2231 1775 2231 
Q 1616 2231 1378 2169 
L 1441 2663 
Q 1497 2656 1531 2656 
Q 1891 2656 2178 2843 
Q 2466 3031 2466 3422 
Q 2466 3731 2256 3934 
Q 2047 4138 1716 4138 
Q 1388 4138 1169 3931 
Q 950 3725 888 3313 
L 325 3413 
Q 428 3978 793 4289 
Q 1159 4600 1703 4600 
Q 2078 4600 2393 4439 
Q 2709 4278 2876 4000 
Q 3044 3722 3044 3409 
Q 3044 3113 2884 2869 
Q 2725 2625 2413 2481 
Q 2819 2388 3044 2092 
Q 3269 1797 3269 1353 
Q 3269 753 2831 336 
Q 2394 -81 1725 -81 
Q 1122 -81 723 278 
Q 325 638 269 1209 
z
" transform="scale(0.015625)"/>
     </defs>
     <use xlink:href="#ArialMT-50"/>
     <use xlink:href="#ArialMT-43" x="66.699219"/>
     <use xlink:href="#ArialMT-33" x="138.916016"/>
    </g>
   </g>
  </g>
  <g id="axes_1">
   <g id="Path3DCollection_1">
    <defs>
     <path id="m0de29bd676" d="M 0 9.354143 
C 2.480748 9.354143 4.860225 8.368532 6.614378 6.614378 
C 8.368532 4.860225 9.354143 2.480748 9.354143 0 
C 9.354143 -2.480748 8.368532 -4.860225 6.614378 -6.614378 
C 4.860225 -8.368532 2.480748 -9.354143 0 -9.354143 
C -2.480748 -9.354143 -4.860225 -8.368532 -6.614378 -6.614378 
C -8.368532 -4.860225 -9.354143 -2.480748 -9.354143 0 
C -9.354143 2.480748 -8.368532 4.860225 -6.614378 6.614378 
C -4.860225 8.368532 -2.480748 9.354143 0 9.354143 
z
" style="stroke: #17becf; stroke-opacity: 0.9"/>
    </defs>
    <g clip-path="url(#pd3ade751e3)">
     <use xlink:href="#m0de29bd676" x="904.365756" y="1005.079007" style="fill: #17becf; fill-opacity: 0.9; stroke: #17becf; stroke-opacity: 0.9"/>
    </g>
   </g>
   <g id="Path3DCollection_2">
    <path d="M 1065.809455 1091.854845 
L 1076.416056 1070.641642 
L 1055.202853 1070.641642 
z
" clip-path="url(#pd3ade751e3)" style="fill: #38184c; fill-opacity: 0.7; stroke: #38184c; stroke-opacity: 0.7"/>
    <path d="M 891.562646 997.334975 
L 902.169248 976.121772 
L 880.956045 976.121772 
z
" clip-path="url(#pd3ade751e3)" style="fill: #38184c; fill-opacity: 0.7; stroke: #38184c; stroke-opacity: 0.7"/>
   </g>
   <g id="text_26">
    <!--   clust_0 -->
    <g style="fill: #262626" transform="translate(493.849076 1289.050068) scale(0.01 -0.01)">
     <defs>
      <path id="ArialMT-20" transform="scale(0.015625)"/>
      <path id="ArialMT-63" d="M 2588 1216 
L 3141 1144 
Q 3050 572 2676 248 
Q 2303 -75 1759 -75 
Q 1078 -75 664 370 
Q 250 816 250 1647 
Q 250 2184 428 2587 
Q 606 2991 970 3192 
Q 1334 3394 1763 3394 
Q 2303 3394 2647 3120 
Q 2991 2847 3088 2344 
L 2541 2259 
Q 2463 2594 2264 2762 
Q 2066 2931 1784 2931 
Q 1359 2931 1093 2626 
Q 828 2322 828 1663 
Q 828 994 1084 691 
Q 1341 388 1753 388 
Q 2084 388 2306 591 
Q 2528 794 2588 1216 
z
" transform="scale(0.015625)"/>
      <path id="ArialMT-6c" d="M 409 0 
L 409 4581 
L 972 4581 
L 972 0 
L 409 0 
z
" transform="scale(0.015625)"/>
      <path id="ArialMT-75" d="M 2597 0 
L 2597 488 
Q 2209 -75 1544 -75 
Q 1250 -75 995 37 
Q 741 150 617 320 
Q 494 491 444 738 
Q 409 903 409 1263 
L 409 3319 
L 972 3319 
L 972 1478 
Q 972 1038 1006 884 
Q 1059 663 1231 536 
Q 1403 409 1656 409 
Q 1909 409 2131 539 
Q 2353 669 2445 892 
Q 2538 1116 2538 1541 
L 2538 3319 
L 3100 3319 
L 3100 0 
L 2597 0 
z
" transform="scale(0.015625)"/>
      <path id="ArialMT-73" d="M 197 991 
L 753 1078 
Q 800 744 1014 566 
Q 1228 388 1613 388 
Q 2000 388 2187 545 
Q 2375 703 2375 916 
Q 2375 1106 2209 1216 
Q 2094 1291 1634 1406 
Q 1016 1563 777 1677 
Q 538 1791 414 1992 
Q 291 2194 291 2438 
Q 291 2659 392 2848 
Q 494 3038 669 3163 
Q 800 3259 1026 3326 
Q 1253 3394 1513 3394 
Q 1903 3394 2198 3281 
Q 2494 3169 2634 2976 
Q 2775 2784 2828 2463 
L 2278 2388 
Q 2241 2644 2061 2787 
Q 1881 2931 1553 2931 
Q 1166 2931 1000 2803 
Q 834 2675 834 2503 
Q 834 2394 903 2306 
Q 972 2216 1119 2156 
Q 1203 2125 1616 2013 
Q 2213 1853 2448 1751 
Q 2684 1650 2818 1456 
Q 2953 1263 2953 975 
Q 2953 694 2789 445 
Q 2625 197 2315 61 
Q 2006 -75 1616 -75 
Q 969 -75 630 194 
Q 291 463 197 991 
z
" transform="scale(0.015625)"/>
      <path id="ArialMT-74" d="M 1650 503 
L 1731 6 
Q 1494 -44 1306 -44 
Q 1000 -44 831 53 
Q 663 150 594 308 
Q 525 466 525 972 
L 525 2881 
L 113 2881 
L 113 3319 
L 525 3319 
L 525 4141 
L 1084 4478 
L 1084 3319 
L 1650 3319 
L 1650 2881 
L 1084 2881 
L 1084 941 
Q 1084 700 1114 631 
Q 1144 563 1211 522 
Q 1278 481 1403 481 
Q 1497 481 1650 503 
z
" transform="scale(0.015625)"/>
      <path id="ArialMT-5f" d="M -97 -1272 
L -97 -866 
L 3631 -866 
L 3631 -1272 
L -97 -1272 
z
" transform="scale(0.015625)"/>
     </defs>
     <use xlink:href="#ArialMT-20"/>
     <use xlink:href="#ArialMT-20" x="27.783203"/>
     <use xlink:href="#ArialMT-63" x="55.566406"/>
     <use xlink:href="#ArialMT-6c" x="105.566406"/>
     <use xlink:href="#ArialMT-75" x="127.783203"/>
     <use xlink:href="#ArialMT-73" x="183.398438"/>
     <use xlink:href="#ArialMT-74" x="233.398438"/>
     <use xlink:href="#ArialMT-5f" x="261.181641"/>
     <use xlink:href="#ArialMT-30" x="316.796875"/>
    </g>
   </g>
   <g id="text_27">
    <!--   clust_5 -->
    <g style="fill: #262626" transform="translate(478.553787 1070.032519) scale(0.01 -0.01)">
     <defs>
      <path id="ArialMT-35" d="M 266 1200 
L 856 1250 
Q 922 819 1161 601 
Q 1400 384 1738 384 
Q 2144 384 2425 690 
Q 2706 997 2706 1503 
Q 2706 1984 2436 2262 
Q 2166 2541 1728 2541 
Q 1456 2541 1237 2417 
Q 1019 2294 894 2097 
L 366 2166 
L 809 4519 
L 3088 4519 
L 3088 3981 
L 1259 3981 
L 1013 2750 
Q 1425 3038 1878 3038 
Q 2478 3038 2890 2622 
Q 3303 2206 3303 1553 
Q 3303 931 2941 478 
Q 2500 -78 1738 -78 
Q 1113 -78 717 272 
Q 322 622 266 1200 
z
" transform="scale(0.015625)"/>
     </defs>
     <use xlink:href="#ArialMT-20"/>
     <use xlink:href="#ArialMT-20" x="27.783203"/>
     <use xlink:href="#ArialMT-63" x="55.566406"/>
     <use xlink:href="#ArialMT-6c" x="105.566406"/>
     <use xlink:href="#ArialMT-75" x="127.783203"/>
     <use xlink:href="#ArialMT-73" x="183.398438"/>
     <use xlink:href="#ArialMT-74" x="233.398438"/>
     <use xlink:href="#ArialMT-5f" x="261.181641"/>
     <use xlink:href="#ArialMT-35" x="316.796875"/>
    </g>
   </g>
   <g id="text_28">
    <!--   clust_4 -->
    <g style="fill: #262626" transform="translate(852.919852 1190.528817) scale(0.01 -0.01)">
     <use xlink:href="#ArialMT-20"/>
     <use xlink:href="#ArialMT-20" x="27.783203"/>
     <use xlink:href="#ArialMT-63" x="55.566406"/>
     <use xlink:href="#ArialMT-6c" x="105.566406"/>
     <use xlink:href="#ArialMT-75" x="127.783203"/>
     <use xlink:href="#ArialMT-73" x="183.398438"/>
     <use xlink:href="#ArialMT-74" x="233.398438"/>
     <use xlink:href="#ArialMT-5f" x="261.181641"/>
     <use xlink:href="#ArialMT-34" x="316.796875"/>
    </g>
   </g>
   <g id="text_29">
    <!--   clust_2 -->
    <g style="fill: #262626" transform="translate(493.652548 1134.604884) scale(0.01 -0.01)">
     <use xlink:href="#ArialMT-20"/>
     <use xlink:href="#ArialMT-20" x="27.783203"/>
     <use xlink:href="#ArialMT-63" x="55.566406"/>
     <use xlink:href="#ArialMT-6c" x="105.566406"/>
     <use xlink:href="#ArialMT-75" x="127.783203"/>
     <use xlink:href="#ArialMT-73" x="183.398438"/>
     <use xlink:href="#ArialMT-74" x="233.398438"/>
     <use xlink:href="#ArialMT-5f" x="261.181641"/>
     <use xlink:href="#ArialMT-32" x="316.796875"/>
    </g>
   </g>
   <g id="text_30">
    <!--   clust_6 -->
    <g style="fill: #262626" transform="translate(904.365756 1005.079007) scale(0.01 -0.01)">
     <use xlink:href="#ArialMT-20"/>
     <use xlink:href="#ArialMT-20" x="27.783203"/>
     <use xlink:href="#ArialMT-63" x="55.566406"/>
     <use xlink:href="#ArialMT-6c" x="105.566406"/>
     <use xlink:href="#ArialMT-75" x="127.783203"/>
     <use xlink:href="#ArialMT-73" x="183.398438"/>
     <use xlink:href="#ArialMT-74" x="233.398438"/>
     <use xlink:href="#ArialMT-5f" x="261.181641"/>
     <use xlink:href="#ArialMT-36" x="316.796875"/>
    </g>
   </g>
   <g id="text_31">
    <!--   clust_3 -->
    <g style="fill: #262626" transform="translate(423.634938 844.263291) scale(0.01 -0.01)">
     <use xlink:href="#ArialMT-20"/>
     <use xlink:href="#ArialMT-20" x="27.783203"/>
     <use xlink:href="#ArialMT-63" x="55.566406"/>
     <use xlink:href="#ArialMT-6c" x="105.566406"/>
     <use xlink:href="#ArialMT-75" x="127.783203"/>
     <use xlink:href="#ArialMT-73" x="183.398438"/>
     <use xlink:href="#ArialMT-74" x="233.398438"/>
     <use xlink:href="#ArialMT-5f" x="261.181641"/>
     <use xlink:href="#ArialMT-33" x="316.796875"/>
    </g>
   </g>
   <g id="text_32">
    <!--   clust_1 -->
    <g style="fill: #262626" transform="translate(604.149197 1177.567437) scale(0.01 -0.01)">
     <use xlink:href="#ArialMT-20"/>
     <use xlink:href="#ArialMT-20" x="27.783203"/>
     <use xlink:href="#ArialMT-63" x="55.566406"/>
     <use xlink:href="#ArialMT-6c" x="105.566406"/>
     <use xlink:href="#ArialMT-75" x="127.783203"/>
     <use xlink:href="#ArialMT-73" x="183.398438"/>
     <use xlink:href="#ArialMT-74" x="233.398438"/>
     <use xlink:href="#ArialMT-5f" x="261.181641"/>
     <use xlink:href="#ArialMT-31" x="316.796875"/>
    </g>
   </g>
   <g id="Path3DCollection_3">
    <defs>
     <path id="ma83ac45abb" d="M 0 9.354143 
C 2.480748 9.354143 4.860225 8.368532 6.614378 6.614378 
C 8.368532 4.860225 9.354143 2.480748 9.354143 0 
C 9.354143 -2.480748 8.368532 -4.860225 6.614378 -6.614378 
C 4.860225 -8.368532 2.480748 -9.354143 0 -9.354143 
C -2.480748 -9.354143 -4.860225 -8.368532 -6.614378 -6.614378 
C -8.368532 -4.860225 -9.354143 -2.480748 -9.354143 0 
C -9.354143 2.480748 -8.368532 4.860225 -6.614378 6.614378 
C -4.860225 8.368532 -2.480748 9.354143 0 9.354143 
z
" style="stroke: #bcbd22; stroke-opacity: 0.9"/>
    </defs>
    <g clip-path="url(#pd3ade751e3)">
     <use xlink:href="#ma83ac45abb" x="478.553787" y="1070.032519" style="fill: #bcbd22; fill-opacity: 0.9; stroke: #bcbd22; stroke-opacity: 0.9"/>
    </g>
   </g>
   <g id="Path3DCollection_4">
    <path d="M 498.134924 1098.32942 
L 508.741526 1077.116216 
L 487.528323 1077.116216 
z
" clip-path="url(#pd3ade751e3)" style="fill: #7ed9b7; fill-opacity: 0.7; stroke: #7ed9b7; stroke-opacity: 0.7"/>
    <path d="M 503.268725 1098.672402 
L 513.875326 1077.459199 
L 492.662123 1077.459199 
z
" clip-path="url(#pd3ade751e3)" style="fill: #7ed9b7; fill-opacity: 0.7; stroke: #7ed9b7; stroke-opacity: 0.7"/>
   </g>
   <g id="legend_1">
    <g id="patch_6">
     <path d="M 1916.694531 689.385 
L 2069.5 689.385 
Q 2071.7 689.385 2071.7 687.185 
L 2071.7 540.5 
Q 2071.7 538.3 2069.5 538.3 
L 1916.694531 538.3 
Q 1914.494531 538.3 1914.494531 540.5 
L 1914.494531 687.185 
Q 1914.494531 689.385 1916.694531 689.385 
z
" style="fill: #ffffff; opacity: 0.8; stroke: #cccccc; stroke-linejoin: miter"/>
    </g>
    <g id="Path3DCollection_5">
     <defs>
      <path id="mcafb88b89b" d="M -0 10.606602 
L 10.606602 -10.606602 
L -10.606602 -10.606602 
z
" style="stroke: #38184c; stroke-opacity: 0.7"/>
     </defs>
     <g>
      <use xlink:href="#mcafb88b89b" x="1929.894531" y="548.564375" style="fill: #38184c; fill-opacity: 0.7; stroke: #38184c; stroke-opacity: 0.7"/>
     </g>
    </g>
    <g id="text_33">
     <!-- CLP -->
     <g style="fill: #262626" transform="translate(1949.694531 556.01) scale(0.11 -0.11)">
      <defs>
       <path id="ArialMT-4c" d="M 469 0 
L 469 4581 
L 1075 4581 
L 1075 541 
L 3331 541 
L 3331 0 
L 469 0 
z
" transform="scale(0.015625)"/>
      </defs>
      <use xlink:href="#ArialMT-43"/>
      <use xlink:href="#ArialMT-4c" x="72.216797"/>
      <use xlink:href="#ArialMT-50" x="127.832031"/>
     </g>
    </g>
    <g id="Path3DCollection_6">
     <defs>
      <path id="me530ec625e" d="M -0 10.606602 
L 10.606602 -10.606602 
L -10.606602 -10.606602 
z
" style="stroke: #bdb0d9; stroke-opacity: 0.7"/>
     </defs>
     <g>
      <use xlink:href="#me530ec625e" x="1929.894531" y="568.969375" style="fill: #bdb0d9; fill-opacity: 0.7; stroke: #bdb0d9; stroke-opacity: 0.7"/>
     </g>
    </g>
    <g id="text_34">
     <!-- CMP -->
     <g style="fill: #262626" transform="translate(1949.694531 576.415) scale(0.11 -0.11)">
      <defs>
       <path id="ArialMT-4d" d="M 475 0 
L 475 4581 
L 1388 4581 
L 2472 1338 
Q 2622 884 2691 659 
Q 2769 909 2934 1394 
L 4031 4581 
L 4847 4581 
L 4847 0 
L 4263 0 
L 4263 3834 
L 2931 0 
L 2384 0 
L 1059 3900 
L 1059 0 
L 475 0 
z
" transform="scale(0.015625)"/>
      </defs>
      <use xlink:href="#ArialMT-43"/>
      <use xlink:href="#ArialMT-4d" x="72.216797"/>
      <use xlink:href="#ArialMT-50" x="155.517578"/>
     </g>
    </g>
    <g id="Path3DCollection_7">
     <defs>
      <path id="mf0e25f7c79" d="M -0 10.606602 
L 10.606602 -10.606602 
L -10.606602 -10.606602 
z
" style="stroke: #92929c; stroke-opacity: 0.7"/>
     </defs>
     <g>
      <use xlink:href="#mf0e25f7c79" x="1929.894531" y="589.374375" style="fill: #92929c; fill-opacity: 0.7; stroke: #92929c; stroke-opacity: 0.7"/>
     </g>
    </g>
    <g id="text_35">
     <!-- GMP -->
     <g style="fill: #262626" transform="translate(1949.694531 596.82) scale(0.11 -0.11)">
      <defs>
       <path id="ArialMT-47" d="M 2638 1797 
L 2638 2334 
L 4578 2338 
L 4578 638 
Q 4131 281 3656 101 
Q 3181 -78 2681 -78 
Q 2006 -78 1454 211 
Q 903 500 622 1047 
Q 341 1594 341 2269 
Q 341 2938 620 3517 
Q 900 4097 1425 4378 
Q 1950 4659 2634 4659 
Q 3131 4659 3532 4498 
Q 3934 4338 4162 4050 
Q 4391 3763 4509 3300 
L 3963 3150 
Q 3859 3500 3706 3700 
Q 3553 3900 3268 4020 
Q 2984 4141 2638 4141 
Q 2222 4141 1919 4014 
Q 1616 3888 1430 3681 
Q 1244 3475 1141 3228 
Q 966 2803 966 2306 
Q 966 1694 1177 1281 
Q 1388 869 1791 669 
Q 2194 469 2647 469 
Q 3041 469 3416 620 
Q 3791 772 3984 944 
L 3984 1797 
L 2638 1797 
z
" transform="scale(0.015625)"/>
      </defs>
      <use xlink:href="#ArialMT-47"/>
      <use xlink:href="#ArialMT-4d" x="77.783203"/>
      <use xlink:href="#ArialMT-50" x="161.083984"/>
     </g>
    </g>
    <g id="Path3DCollection_8">
     <defs>
      <path id="m8aa47bbab9" d="M -0 10.606602 
L 10.606602 -10.606602 
L -10.606602 -10.606602 
z
" style="stroke: #bae33a; stroke-opacity: 0.7"/>
     </defs>
     <g>
      <use xlink:href="#m8aa47bbab9" x="1929.894531" y="609.779375" style="fill: #bae33a; fill-opacity: 0.7; stroke: #bae33a; stroke-opacity: 0.7"/>
     </g>
    </g>
    <g id="text_36">
     <!-- HSC -->
     <g style="fill: #262626" transform="translate(1949.694531 617.225) scale(0.11 -0.11)">
      <defs>
       <path id="ArialMT-48" d="M 513 0 
L 513 4581 
L 1119 4581 
L 1119 2700 
L 3500 2700 
L 3500 4581 
L 4106 4581 
L 4106 0 
L 3500 0 
L 3500 2159 
L 1119 2159 
L 1119 0 
L 513 0 
z
" transform="scale(0.015625)"/>
       <path id="ArialMT-53" d="M 288 1472 
L 859 1522 
Q 900 1178 1048 958 
Q 1197 738 1509 602 
Q 1822 466 2213 466 
Q 2559 466 2825 569 
Q 3091 672 3220 851 
Q 3350 1031 3350 1244 
Q 3350 1459 3225 1620 
Q 3100 1781 2813 1891 
Q 2628 1963 1997 2114 
Q 1366 2266 1113 2400 
Q 784 2572 623 2826 
Q 463 3081 463 3397 
Q 463 3744 659 4045 
Q 856 4347 1234 4503 
Q 1613 4659 2075 4659 
Q 2584 4659 2973 4495 
Q 3363 4331 3572 4012 
Q 3781 3694 3797 3291 
L 3216 3247 
Q 3169 3681 2898 3903 
Q 2628 4125 2100 4125 
Q 1550 4125 1298 3923 
Q 1047 3722 1047 3438 
Q 1047 3191 1225 3031 
Q 1400 2872 2139 2705 
Q 2878 2538 3153 2413 
Q 3553 2228 3743 1945 
Q 3934 1663 3934 1294 
Q 3934 928 3725 604 
Q 3516 281 3123 101 
Q 2731 -78 2241 -78 
Q 1619 -78 1198 103 
Q 778 284 539 648 
Q 300 1013 288 1472 
z
" transform="scale(0.015625)"/>
      </defs>
      <use xlink:href="#ArialMT-48"/>
      <use xlink:href="#ArialMT-53" x="72.216797"/>
      <use xlink:href="#ArialMT-43" x="138.916016"/>
     </g>
    </g>
    <g id="Path3DCollection_9">
     <defs>
      <path id="mcfdee725f6" d="M -0 10.606602 
L 10.606602 -10.606602 
L -10.606602 -10.606602 
z
" style="stroke: #7ed9b7; stroke-opacity: 0.7"/>
     </defs>
     <g>
      <use xlink:href="#mcfdee725f6" x="1929.894531" y="630.184375" style="fill: #7ed9b7; fill-opacity: 0.7; stroke: #7ed9b7; stroke-opacity: 0.7"/>
     </g>
    </g>
    <g id="text_37">
     <!-- LMPP -->
     <g style="fill: #262626" transform="translate(1949.694531 637.63) scale(0.11 -0.11)">
      <use xlink:href="#ArialMT-4c"/>
      <use xlink:href="#ArialMT-4d" x="55.615234"/>
      <use xlink:href="#ArialMT-50" x="138.916016"/>
      <use xlink:href="#ArialMT-50" x="205.615234"/>
     </g>
    </g>
    <g id="Path3DCollection_10">
     <defs>
      <path id="m62f50dde87" d="M -0 10.606602 
L 10.606602 -10.606602 
L -10.606602 -10.606602 
z
" style="stroke: #008f8c; stroke-opacity: 0.7"/>
     </defs>
     <g>
      <use xlink:href="#m62f50dde87" x="1929.894531" y="650.589375" style="fill: #008f8c; fill-opacity: 0.7; stroke: #008f8c; stroke-opacity: 0.7"/>
     </g>
    </g>
    <g id="text_38">
     <!-- MEP -->
     <g style="fill: #262626" transform="translate(1949.694531 658.035) scale(0.11 -0.11)">
      <defs>
       <path id="ArialMT-45" d="M 506 0 
L 506 4581 
L 3819 4581 
L 3819 4041 
L 1113 4041 
L 1113 2638 
L 3647 2638 
L 3647 2100 
L 1113 2100 
L 1113 541 
L 3925 541 
L 3925 0 
L 506 0 
z
" transform="scale(0.015625)"/>
      </defs>
      <use xlink:href="#ArialMT-4d"/>
      <use xlink:href="#ArialMT-45" x="83.300781"/>
      <use xlink:href="#ArialMT-50" x="150"/>
     </g>
    </g>
    <g id="Path3DCollection_11">
     <defs>
      <path id="m33a5754c5b" d="M -0 10.606602 
L 10.606602 -10.606602 
L -10.606602 -10.606602 
z
" style="stroke: #275974; stroke-opacity: 0.7"/>
     </defs>
     <g>
      <use xlink:href="#m33a5754c5b" x="1929.894531" y="670.994375" style="fill: #275974; fill-opacity: 0.7; stroke: #275974; stroke-opacity: 0.7"/>
     </g>
    </g>
    <g id="text_39">
     <!-- MPP -->
     <g style="fill: #262626" transform="translate(1949.694531 678.44) scale(0.11 -0.11)">
      <use xlink:href="#ArialMT-4d"/>
      <use xlink:href="#ArialMT-50" x="83.300781"/>
      <use xlink:href="#ArialMT-50" x="150"/>
     </g>
    </g>
    <g id="Path3DCollection_12">
     <defs>
      <path id="m22a5a16bb3" d="M 0 9.354143 
C 2.480748 9.354143 4.860225 8.368532 6.614378 6.614378 
C 8.368532 4.860225 9.354143 2.480748 9.354143 0 
C 9.354143 -2.480748 8.368532 -4.860225 6.614378 -6.614378 
C 4.860225 -8.368532 2.480748 -9.354143 0 -9.354143 
C -2.480748 -9.354143 -4.860225 -8.368532 -6.614378 -6.614378 
C -8.368532 -4.860225 -9.354143 -2.480748 -9.354143 0 
C -9.354143 2.480748 -8.368532 4.860225 -6.614378 6.614378 
C -4.860225 8.368532 -2.480748 9.354143 0 9.354143 
z
" style="stroke: #1f77b4; stroke-opacity: 0.9"/>
     </defs>
     <g>
      <use xlink:href="#m22a5a16bb3" x="2012.648906" y="548.564375" style="fill: #1f77b4; fill-opacity: 0.9; stroke: #1f77b4; stroke-opacity: 0.9"/>
     </g>
    </g>
    <g id="text_40">
     <!-- clust_0 -->
     <g style="fill: #262626" transform="translate(2032.448906 556.01) scale(0.11 -0.11)">
      <use xlink:href="#ArialMT-63"/>
      <use xlink:href="#ArialMT-6c" x="50"/>
      <use xlink:href="#ArialMT-75" x="72.216797"/>
      <use xlink:href="#ArialMT-73" x="127.832031"/>
      <use xlink:href="#ArialMT-74" x="177.832031"/>
      <use xlink:href="#ArialMT-5f" x="205.615234"/>
      <use xlink:href="#ArialMT-30" x="261.230469"/>
     </g>
    </g>
    <g id="Path3DCollection_13">
     <defs>
      <path id="m33f2a28d74" d="M 0 9.354143 
C 2.480748 9.354143 4.860225 8.368532 6.614378 6.614378 
C 8.368532 4.860225 9.354143 2.480748 9.354143 0 
C 9.354143 -2.480748 8.368532 -4.860225 6.614378 -6.614378 
C 4.860225 -8.368532 2.480748 -9.354143 0 -9.354143 
C -2.480748 -9.354143 -4.860225 -8.368532 -6.614378 -6.614378 
C -8.368532 -4.860225 -9.354143 -2.480748 -9.354143 0 
C -9.354143 2.480748 -8.368532 4.860225 -6.614378 6.614378 
C -4.860225 8.368532 -2.480748 9.354143 0 9.354143 
z
" style="stroke: #ff7f0e; stroke-opacity: 0.9"/>
     </defs>
     <g>
      <use xlink:href="#m33f2a28d74" x="2012.648906" y="568.969375" style="fill: #ff7f0e; fill-opacity: 0.9; stroke: #ff7f0e; stroke-opacity: 0.9"/>
     </g>
    </g>
    <g id="text_41">
     <!-- clust_1 -->
     <g style="fill: #262626" transform="translate(2032.448906 576.415) scale(0.11 -0.11)">
      <use xlink:href="#ArialMT-63"/>
      <use xlink:href="#ArialMT-6c" x="50"/>
      <use xlink:href="#ArialMT-75" x="72.216797"/>
      <use xlink:href="#ArialMT-73" x="127.832031"/>
      <use xlink:href="#ArialMT-74" x="177.832031"/>
      <use xlink:href="#ArialMT-5f" x="205.615234"/>
      <use xlink:href="#ArialMT-31" x="261.230469"/>
     </g>
    </g>
    <g id="Path3DCollection_14">
     <defs>
      <path id="mf20a62e056" d="M 0 9.354143 
C 2.480748 9.354143 4.860225 8.368532 6.614378 6.614378 
C 8.368532 4.860225 9.354143 2.480748 9.354143 0 
C 9.354143 -2.480748 8.368532 -4.860225 6.614378 -6.614378 
C 4.860225 -8.368532 2.480748 -9.354143 0 -9.354143 
C -2.480748 -9.354143 -4.860225 -8.368532 -6.614378 -6.614378 
C -8.368532 -4.860225 -9.354143 -2.480748 -9.354143 0 
C -9.354143 2.480748 -8.368532 4.860225 -6.614378 6.614378 
C -4.860225 8.368532 -2.480748 9.354143 0 9.354143 
z
" style="stroke: #d62728; stroke-opacity: 0.9"/>
     </defs>
     <g>
      <use xlink:href="#mf20a62e056" x="2012.648906" y="589.374375" style="fill: #d62728; fill-opacity: 0.9; stroke: #d62728; stroke-opacity: 0.9"/>
     </g>
    </g>
    <g id="text_42">
     <!-- clust_2 -->
     <g style="fill: #262626" transform="translate(2032.448906 596.82) scale(0.11 -0.11)">
      <use xlink:href="#ArialMT-63"/>
      <use xlink:href="#ArialMT-6c" x="50"/>
      <use xlink:href="#ArialMT-75" x="72.216797"/>
      <use xlink:href="#ArialMT-73" x="127.832031"/>
      <use xlink:href="#ArialMT-74" x="177.832031"/>
      <use xlink:href="#ArialMT-5f" x="205.615234"/>
      <use xlink:href="#ArialMT-32" x="261.230469"/>
     </g>
    </g>
    <g id="Path3DCollection_15">
     <defs>
      <path id="md06f6a6062" d="M 0 9.354143 
C 2.480748 9.354143 4.860225 8.368532 6.614378 6.614378 
C 8.368532 4.860225 9.354143 2.480748 9.354143 0 
C 9.354143 -2.480748 8.368532 -4.860225 6.614378 -6.614378 
C 4.860225 -8.368532 2.480748 -9.354143 0 -9.354143 
C -2.480748 -9.354143 -4.860225 -8.368532 -6.614378 -6.614378 
C -8.368532 -4.860225 -9.354143 -2.480748 -9.354143 0 
C -9.354143 2.480748 -8.368532 4.860225 -6.614378 6.614378 
C -4.860225 8.368532 -2.480748 9.354143 0 9.354143 
z
" style="stroke: #8c564b; stroke-opacity: 0.9"/>
     </defs>
     <g>
      <use xlink:href="#md06f6a6062" x="2012.648906" y="609.779375" style="fill: #8c564b; fill-opacity: 0.9; stroke: #8c564b; stroke-opacity: 0.9"/>
     </g>
    </g>
    <g id="text_43">
     <!-- clust_3 -->
     <g style="fill: #262626" transform="translate(2032.448906 617.225) scale(0.11 -0.11)">
      <use xlink:href="#ArialMT-63"/>
      <use xlink:href="#ArialMT-6c" x="50"/>
      <use xlink:href="#ArialMT-75" x="72.216797"/>
      <use xlink:href="#ArialMT-73" x="127.832031"/>
      <use xlink:href="#ArialMT-74" x="177.832031"/>
      <use xlink:href="#ArialMT-5f" x="205.615234"/>
      <use xlink:href="#ArialMT-33" x="261.230469"/>
     </g>
    </g>
    <g id="Path3DCollection_16">
     <defs>
      <path id="m1f83935efd" d="M 0 9.354143 
C 2.480748 9.354143 4.860225 8.368532 6.614378 6.614378 
C 8.368532 4.860225 9.354143 2.480748 9.354143 0 
C 9.354143 -2.480748 8.368532 -4.860225 6.614378 -6.614378 
C 4.860225 -8.368532 2.480748 -9.354143 0 -9.354143 
C -2.480748 -9.354143 -4.860225 -8.368532 -6.614378 -6.614378 
C -8.368532 -4.860225 -9.354143 -2.480748 -9.354143 0 
C -9.354143 2.480748 -8.368532 4.860225 -6.614378 6.614378 
C -4.860225 8.368532 -2.480748 9.354143 0 9.354143 
z
" style="stroke: #e377c2; stroke-opacity: 0.9"/>
     </defs>
     <g>
      <use xlink:href="#m1f83935efd" x="2012.648906" y="630.184375" style="fill: #e377c2; fill-opacity: 0.9; stroke: #e377c2; stroke-opacity: 0.9"/>
     </g>
    </g>
    <g id="text_44">
     <!-- clust_4 -->
     <g style="fill: #262626" transform="translate(2032.448906 637.63) scale(0.11 -0.11)">
      <use xlink:href="#ArialMT-63"/>
      <use xlink:href="#ArialMT-6c" x="50"/>
      <use xlink:href="#ArialMT-75" x="72.216797"/>
      <use xlink:href="#ArialMT-73" x="127.832031"/>
      <use xlink:href="#ArialMT-74" x="177.832031"/>
      <use xlink:href="#ArialMT-5f" x="205.615234"/>
      <use xlink:href="#ArialMT-34" x="261.230469"/>
     </g>
    </g>
    <g id="Path3DCollection_17">
     <g>
      <use xlink:href="#ma83ac45abb" x="2012.648906" y="650.589375" style="fill: #bcbd22; fill-opacity: 0.9; stroke: #bcbd22; stroke-opacity: 0.9"/>
     </g>
    </g>
    <g id="text_45">
     <!-- clust_5 -->
     <g style="fill: #262626" transform="translate(2032.448906 658.035) scale(0.11 -0.11)">
      <use xlink:href="#ArialMT-63"/>
      <use xlink:href="#ArialMT-6c" x="50"/>
      <use xlink:href="#ArialMT-75" x="72.216797"/>
      <use xlink:href="#ArialMT-73" x="127.832031"/>
      <use xlink:href="#ArialMT-74" x="177.832031"/>
      <use xlink:href="#ArialMT-5f" x="205.615234"/>
      <use xlink:href="#ArialMT-35" x="261.230469"/>
     </g>
    </g>
    <g id="Path3DCollection_18">
     <g>
      <use xlink:href="#m0de29bd676" x="2012.648906" y="670.994375" style="fill: #17becf; fill-opacity: 0.9; stroke: #17becf; stroke-opacity: 0.9"/>
     </g>
    </g>
    <g id="text_46">
     <!-- clust_6 -->
     <g style="fill: #262626" transform="translate(2032.448906 678.44) scale(0.11 -0.11)">
      <use xlink:href="#ArialMT-63"/>
      <use xlink:href="#ArialMT-6c" x="50"/>
      <use xlink:href="#ArialMT-75" x="72.216797"/>
      <use xlink:href="#ArialMT-73" x="127.832031"/>
      <use xlink:href="#ArialMT-74" x="177.832031"/>
      <use xlink:href="#ArialMT-5f" x="205.615234"/>
      <use xlink:href="#ArialMT-36" x="261.230469"/>
     </g>
    </g>
   </g>
   <g id="Path3DCollection_19">
    <g clip-path="url(#pd3ade751e3)">
     <use xlink:href="#m22a5a16bb3" x="493.849076" y="1289.050068" style="fill: #1f77b4; fill-opacity: 0.9; stroke: #1f77b4; stroke-opacity: 0.9"/>
    </g>
   </g>
   <g id="Path3DCollection_20">
    <path d="M 528.455125 1299.967018 
L 539.061727 1278.753815 
L 517.848523 1278.753815 
z
" clip-path="url(#pd3ade751e3)" style="fill: #bae33a; fill-opacity: 0.7; stroke: #bae33a; stroke-opacity: 0.7"/>
    <path d="M 504.727352 1284.432327 
L 515.333954 1263.219123 
L 494.12075 1263.219123 
z
" clip-path="url(#pd3ade751e3)" style="fill: #bae33a; fill-opacity: 0.7; stroke: #bae33a; stroke-opacity: 0.7"/>
   </g>
   <g id="Path3DCollection_21">
    <path d="M 440.832815 841.372945 
L 451.439417 820.159741 
L 430.226213 820.159741 
z
" clip-path="url(#pd3ade751e3)" style="fill: #92929c; fill-opacity: 0.7; stroke: #92929c; stroke-opacity: 0.7"/>
    <path d="M 424.501913 872.462563 
L 435.108514 851.24936 
L 413.895311 851.24936 
z
" clip-path="url(#pd3ade751e3)" style="fill: #92929c; fill-opacity: 0.7; stroke: #92929c; stroke-opacity: 0.7"/>
   </g>
   <g id="Path3DCollection_22">
    <g clip-path="url(#pd3ade751e3)">
     <use xlink:href="#md06f6a6062" x="423.634938" y="844.263291" style="fill: #8c564b; fill-opacity: 0.9; stroke: #8c564b; stroke-opacity: 0.9"/>
    </g>
   </g>
   <g id="Path3DCollection_23">
    <g clip-path="url(#pd3ade751e3)">
     <use xlink:href="#mf20a62e056" x="493.652548" y="1134.604884" style="fill: #d62728; fill-opacity: 0.9; stroke: #d62728; stroke-opacity: 0.9"/>
    </g>
   </g>
   <g id="Path3DCollection_24">
    <path d="M 513.179706 1361.758872 
L 523.786308 1340.545669 
L 502.573105 1340.545669 
z
" clip-path="url(#pd3ade751e3)" style="fill: #275974; fill-opacity: 0.7; stroke: #275974; stroke-opacity: 0.7"/>
    <path d="M 639.875795 1350.847921 
L 650.482396 1329.634718 
L 629.269193 1329.634718 
z
" clip-path="url(#pd3ade751e3)" style="fill: #275974; fill-opacity: 0.7; stroke: #275974; stroke-opacity: 0.7"/>
   </g>
   <g id="Path3DCollection_25">
    <path d="M 549.826242 1171.94168 
L 560.432844 1150.728476 
L 539.219641 1150.728476 
z
" clip-path="url(#pd3ade751e3)" style="fill: #bdb0d9; fill-opacity: 0.7; stroke: #bdb0d9; stroke-opacity: 0.7"/>
    <path d="M 562.069471 1157.779082 
L 572.676073 1136.565879 
L 551.46287 1136.565879 
z
" clip-path="url(#pd3ade751e3)" style="fill: #bdb0d9; fill-opacity: 0.7; stroke: #bdb0d9; stroke-opacity: 0.7"/>
   </g>
   <g id="Path3DCollection_26">
    <g clip-path="url(#pd3ade751e3)">
     <use xlink:href="#m33f2a28d74" x="604.149197" y="1177.567437" style="fill: #ff7f0e; fill-opacity: 0.9; stroke: #ff7f0e; stroke-opacity: 0.9"/>
    </g>
   </g>
   <g id="Path3DCollection_27">
    <g clip-path="url(#pd3ade751e3)">
     <use xlink:href="#m1f83935efd" x="852.919852" y="1190.528817" style="fill: #e377c2; fill-opacity: 0.9; stroke: #e377c2; stroke-opacity: 0.9"/>
    </g>
   </g>
   <g id="Path3DCollection_28">
    <path d="M 859.027016 1202.956459 
L 869.633617 1181.743255 
L 848.420414 1181.743255 
z
" clip-path="url(#pd3ade751e3)" style="fill: #008f8c; fill-opacity: 0.7; stroke: #008f8c; stroke-opacity: 0.7"/>
    <path d="M 879.836749 1193.000009 
L 890.443351 1171.786805 
L 869.230148 1171.786805 
z
" clip-path="url(#pd3ade751e3)" style="fill: #008f8c; fill-opacity: 0.7; stroke: #008f8c; stroke-opacity: 0.7"/>
   </g>
  </g>
 </g>
 <defs>
  <clipPath id="pd3ade751e3">
   <rect x="180" y="532.8" width="1116" height="1116"/>
  </clipPath>
 </defs>
</svg>
